<?xml version="1.0" encoding="utf-8"?>
<!-- Generator: Adobe Illustrator 23.0.2, SVG Export Plug-In . SVG Version: 6.00 Build 0)  -->
<svg version="1.1" id="Layer_1" xmlns="http://www.w3.org/2000/svg" xmlns:xlink="http://www.w3.org/1999/xlink" x="0px" y="0px"
	 viewBox="0 0 472.1055 392.5653" enable-background="new 0 0 472.1055 392.5653" xml:space="preserve">
<g>
	<path d="M287.847,119.1997c-0.7432,1.6699-1.9239,3.0498-3.3565,4.0674c4.7862,10.5966,5.3926,21.1992-3.9033,28.8872
		c-5.7402,4.7465-12.5615,9.0639-19.8662,12.7627l0.8564,19.4043c0.1719,3.8691-1.1757,7.5732-3.792,10.4287
		c-2.6152,2.8574-6.1865,4.5254-10.0556,4.6943c-0.2158,0.0107-0.4317,0.0147-0.6504,0.0147
		c-7.7735,0-14.1299-6.0889-14.4717-13.8604l-0.4482-10.1333c-18.6368,4.4546-35.7989,3.6587-42.8496-5.3804
		c-10.959-14.0503-0.1661-25.9336-4.5625-28.394c-13.4717,6.3706-26.8956,11.1792-36.8418,10.7651
		c-11.1651-0.4648-22.3272,4.7725-30.086,14.6709c-15.3213-4.3017-36.6318-8.271-48.9228-1.832
		c-20.7393,10.8652-17.0332,33.7148-31.6514,37.2705c-37,9-41.4326,46.6777-34.5186,50.627
		c6.9141,3.9501,12.8399-22.7159,35.5538-28.6407c20.9209-5.458,42.7207-49.625,71.8164-42.5039
		c-3.0069,9.5752-3.6455,21.2188-0.708,34.6035c8.8886,40.4912,9.8769,46.418,5.9257,53.3301
		c-3.9502,6.9121-18.7646,27.6524-18.7646,27.6524s-4.8799,38.0244-5.9258,41.4785c-1.0459,3.4541-7.3789,10.4541-7.3789,10.4541
		l5.333,24.333l8.96,12.6181l19.957-3.4521c0,0-1.75-14.667-7-14.25s-9.25-6.5-9.25-6.5l4.1934-32.0908l14.8134-25.6778
		c0,0-1.6738,24.0196-0.6738,33.3526c1,9.333,10.5508,30.8418,10.5508,30.8418l5.9258,8.8877l20.4404-4.0635
		c0,0,1.7559-10.667-8.916-10.667c-10.167,0-7.5752-12.9209-7.5752-12.9209s-5.0918-10.0771-6.7588-19.4111
		c-1.667-9.334,32.667-74,32.667-74s33.3476-38.9287,51.125-35.9658c17.7764,2.9628,42.4668-0.9864,63.207-10.8633
		c20.7393-9.876,46.416-26.6651,46.416-26.6651l27.6534,3.9512l-6.9131,10.8623l-19.752,3.9512l-13.8262-2.9629l-6.913,21.7266
		l29.6279-0.9864l28.6396-11.8515l8.75-10.3399l4.335,6.1416c0,0,12.6514-7.332,16.2959-11.1103
		c3.6445-3.7783,12.3555-25.5557,11.8516-31.1094c-0.5039-5.5537-8.1631-16.1123-13.333-18.5176
		c-3.7354-1.7378-26.4288-1.3515-38.7383-1.0029l3.9375-9.7266c-32.0596-1.9004-56.2755-7.6142-70.3291-13.1543
		C287.9114,119.0283,287.8841,119.1152,287.847,119.1997z M358.264,160.6035l28.1464-5.1846l2.2217,16.2949l-8.0488,8.0489
		c-2.0967-1.8286-12.0332-10.44-14.418-11.5049c-2.6699-1.1924-21.7275-1.9746-21.7275-1.9746l0.6015-1.4868L358.264,160.6035z"/>
	<path d="M448.3255,129.7626l8.6982,4.916c0,0,7.5078,1.8066,10.8653-0.9863c3.3574-2.793,4.875-6.8106,3.9492-15.8018
		c-0.0996-0.9707-0.5244-2.4277-1.2032-4.2568C462.3518,121.8495,453.6302,127.0463,448.3255,129.7626z"/>
	<path d="M278.7044,125.1347c-1.4102,0-2.7764-0.292-4.0615-0.8672c-15.5664-6.9277-27.1006-16.101-35.127-24.1635
		c-2.9687,2.8237-6.2822,5.9101-9.8389,9.1176l16.7823,2.3101c6.9384,0.9497,12.1992,6.7197,12.5097,13.7217l1.5586,35.3037
		c5.583-2.9424,10.9121-6.2988,15.7012-10.0347c0.6113-0.4775,1.2197-0.9629,1.8076-1.4492
		c3.9346-3.2549,5.8526-7.1924,5.8545-12.04c0.0059-3.7901-1.167-7.9185-3.0937-12.145c-0.6797,0.1459-1.3731,0.2465-2.086,0.2465
		H278.7044z"/>
	<path d="M198.9358,134.2617c-0.0556-0.0078-0.1093-0.0225-0.165-0.0308c-3.3897,2.3618-6.6318,4.4683-9.7129,6.3091
		c1.3447,2.4238,0.7158,5.3936,0.1055,8.2793c-1.084,5.1055-2.4317,11.4609,3.2988,18.8057
		c5.792,7.4262,21.7305,8.1157,39.5176,3.7837l-1.4512-32.7989L198.9358,134.2617z"/>
	<path d="M239.4163,43.0283c11.3389,5.0771,24.6445-0.001,29.7217-11.3408c5.0771-11.3399-0.003-24.6436-11.3408-29.7178
		c-11.3399-5.0772-24.6475,0-29.7237,11.3369C222.9983,24.6465,228.0765,37.9541,239.4163,43.0283z"/>
	<path d="M256.9709,125.3418c-0.2676-6.0318-4.8057-11.0098-10.7861-11.8306l-30.1895-4.1538
		c4.4844-6.8276,9.8271-13.2564,14.8848-19.0108c-6.7539-8.6191-9.8477-15.2587-10.208-16.0541
		c-2.251-5.0381,0.0146-10.9644,5.0488-13.2129c1.2939-0.5796,2.665-0.8736,4.0742-0.8736c3.9336,0,7.5166,2.3198,9.126,5.9073
		l0.0195,0.0366l0.043,0.0879c0.0596,0.1308,0.1689,0.3559,0.3262,0.6587c0.4804,0.9248,1.0341,1.914,1.6474,2.9394
		c0.7666,1.2793,1.8369,2.9551,3.2061,4.8848c3.8418-6.7837,4.3496-14.9727-0.4366-19.6729
		c-6.2763-6.166-19.2929-8.4463-31.0605,1.6162c-16.0986,13.9326-24.0205,24.5049-33.0625,44.9629
		c-5.4717,15.4619,3.1992,22.4834,11.1562,27.0322c1.3575,0.7764,2.5977,1.4522,3.7569,1.9834
		c1.3965,0.8321,2.9795,1.4039,4.6914,1.6392l33.2441,4.5747l2.1514,48.6533c0.2959,6.708,5.8271,11.9493,12.4756,11.9493
		c0.1875,0,0.374-0.004,0.5625-0.0118c6.8974-0.3037,12.2412-6.1435,11.9375-13.0381L256.9709,125.3418z"/>
	<path d="M281.9651,107.8251c-16.6797-7.4258-27.9531-17.7989-35.0761-26.3003c-3.5567-4.2466-6.0606-8.0132-7.6465-10.6607
		c-0.794-1.3247-1.3555-2.3667-1.7071-3.0483c-0.1757-0.3384-0.2978-0.5894-0.3681-0.7373
		c-0.0371-0.0752-0.0576-0.1245-0.0684-0.1455l-0.0019,0.0005c-1.8067-4.0259-6.5323-5.8296-10.5606-4.0288
		c-4.0342,1.8027-5.8437,6.5341-4.04,10.5683v-0.0019c0.2265,0.5034,3.7832,8.3598,12.126,18.3256
		c8.333,9.9556,21.5136,22.0455,40.8349,30.646c1.0567,0.4703,2.1611,0.6929,3.2481,0.6929c3.0634,0.0005,5.9873-1.769,7.3134-4.749
		C287.8147,114.3505,286.0013,109.6216,281.9651,107.8251z"/>
	<path d="M442.0042,125.9969c-0.1592-1.0937-1.1738-1.851-2.2676-1.6914c-0.001,0-0.0029,0.0005-0.0039,0.0005
		c0.001,0,0.0029-0.0005,0.0039-0.001c4.4854-0.6538,9.0401-1.3881,13.6563-2.2099l0.0029,0.0019
		c0.0918-0.0161,0.1816-0.0171,0.2725-0.021c4.6748-2.9912,10.1523-7.1108,15.3291-12.4663
		c-7.4942-17.2754-27.3145-52.0537-30.085-55.7114c-3.3721-4.4512-13.333-7.333-13.333-7.333s-3.667-20.6665-9.667-20.6665
		s-4.333,15.333-4.333,15.333l-12.334-3.6665c0,0-11-4-19.833-15c-13.166-0.6665-90.3897,19.2598-108.167,40
		c-6.7646,7.8921-11.6533,16.2144-16.04,23.9883c2.1982,2.0093,5.1093,4.772,8.2959,8.0679
		c5.8779,4.4702,12.3164,8.2763,19.2773,11.3754c2.4404,1.086,4.3115,3.0577,5.2686,5.5533
		c0.4228,1.103,0.6328,2.2495,0.6552,3.3964c13.4639,5.4209,38.2637,11.4561,71.1563,13.2378l1.3691-3.3808l5.9258-21.7276
		c0,0,15.8018-10.8632,23.7022-8.8877c7.9003,1.9747,7.0566,9.711,10.7236,14.044c3.667,4.333,32.7305,13.6094,32.7305,13.6094
		l4.5673,2.581c-21.247,3.0557-40.9785,4.3086-58.8281,4.3086c-6.668,0-13.0752-0.1748-19.1963-0.4912
		c-0.0029,0-0.0058,0.0005-0.0088,0.0005c-1.0986-0.0518-2.0341,0.7949-2.0908,1.894c-0.0566,1.1011,0.7871,2.0386,1.8858,2.1001
		c0.0029,0.0005,0.0058,0.0015,0.0087,0.0015c6.1885,0.3188,12.6641,0.4956,19.4014,0.4956c18.2793,0,38.4902-1.292,60.2637-4.4673
		c0.0039-0.0005,0.0068-0.0019,0.0097-0.0024C441.4114,128.0975,442.1634,127.0869,442.0042,125.9969z M421.1614,69.0107
		c-6.2656-4.501-1.8584-12.3525-1.8584-12.3525l14.2149,10.4873C433.5179,67.1455,427.427,73.5107,421.1614,69.0107z"/>
	<path d="M313.638,380.5653v12h147v-12h-67.5V260.8612c7.832-2.5313,13.499-9.875,13.499-18.5488
		c0-10.7686-8.7285-19.4991-19.498-19.4991c-10.7696,0-19.5,8.7305-19.5,19.4991c0,8.6738,5.6679,16.0166,13.499,18.5478v119.7051
		H313.638z M377.639,242.3125c0-5.2373,4.2617-9.5,9.498-9.5c5.2383,0,9.5,4.2627,9.5,9.5c0,5.2373-4.2617,9.498-9.5,9.498
		C381.9007,251.8105,377.639,247.5497,377.639,242.3125z"/>
</g>
</svg>
